<mxfile host="Electron" agent="Mozilla/5.0 (Windows NT 10.0; Win64; x64) AppleWebKit/537.36 (KHTML, like Gecko) draw.io/26.2.2 Chrome/134.0.6998.178 Electron/35.1.2 Safari/537.36" version="26.2.2">
  <diagram name="Page-1" id="NqOIbdWytTX8fVmxYf_u">
    <mxGraphModel dx="985" dy="1680" grid="1" gridSize="10" guides="1" tooltips="1" connect="1" arrows="1" fold="1" page="1" pageScale="1" pageWidth="850" pageHeight="1100" math="0" shadow="0">
      <root>
        <mxCell id="0" />
        <mxCell id="1" parent="0" />
        <mxCell id="zAQoVmMT4pAwGXwPfLdV-1" value="&amp;nbsp;Repo Microservice 1" style="rounded=1;whiteSpace=wrap;html=1;" vertex="1" parent="1">
          <mxGeometry x="120" y="210" width="130" height="60" as="geometry" />
        </mxCell>
        <mxCell id="zAQoVmMT4pAwGXwPfLdV-2" value=".devcontainer" style="rounded=0;whiteSpace=wrap;html=1;" vertex="1" parent="1">
          <mxGeometry x="370" y="20" width="100" height="40" as="geometry" />
        </mxCell>
        <mxCell id="zAQoVmMT4pAwGXwPfLdV-3" value="&amp;nbsp;Repo API 2" style="rounded=1;whiteSpace=wrap;html=1;" vertex="1" parent="1">
          <mxGeometry x="280" y="210" width="130" height="60" as="geometry" />
        </mxCell>
        <mxCell id="zAQoVmMT4pAwGXwPfLdV-4" value=".devcotainer" style="rounded=0;whiteSpace=wrap;html=1;" vertex="1" parent="1">
          <mxGeometry x="300" y="290" width="100" height="40" as="geometry" />
        </mxCell>
        <mxCell id="zAQoVmMT4pAwGXwPfLdV-5" value="&amp;nbsp;Repo API 3" style="rounded=1;whiteSpace=wrap;html=1;" vertex="1" parent="1">
          <mxGeometry x="430" y="210" width="130" height="60" as="geometry" />
        </mxCell>
        <mxCell id="zAQoVmMT4pAwGXwPfLdV-6" value=".devcotainer" style="rounded=0;whiteSpace=wrap;html=1;" vertex="1" parent="1">
          <mxGeometry x="450" y="290" width="100" height="40" as="geometry" />
        </mxCell>
        <mxCell id="zAQoVmMT4pAwGXwPfLdV-7" value="&amp;nbsp;Repo API 4" style="rounded=1;whiteSpace=wrap;html=1;" vertex="1" parent="1">
          <mxGeometry x="600" y="210" width="130" height="60" as="geometry" />
        </mxCell>
        <mxCell id="zAQoVmMT4pAwGXwPfLdV-8" value=".devcotainer" style="rounded=0;whiteSpace=wrap;html=1;" vertex="1" parent="1">
          <mxGeometry x="620" y="290" width="100" height="40" as="geometry" />
        </mxCell>
        <mxCell id="zAQoVmMT4pAwGXwPfLdV-9" value="&amp;nbsp;Repo Codespaces" style="rounded=1;whiteSpace=wrap;html=1;" vertex="1" parent="1">
          <mxGeometry x="355" y="-60" width="130" height="60" as="geometry" />
        </mxCell>
        <mxCell id="zAQoVmMT4pAwGXwPfLdV-10" value="" style="endArrow=classic;html=1;rounded=0;" edge="1" parent="1">
          <mxGeometry width="50" height="50" relative="1" as="geometry">
            <mxPoint x="370" y="80" as="sourcePoint" />
            <mxPoint x="240" y="190" as="targetPoint" />
          </mxGeometry>
        </mxCell>
        <mxCell id="zAQoVmMT4pAwGXwPfLdV-11" value="" style="endArrow=classic;html=1;rounded=0;" edge="1" parent="1">
          <mxGeometry width="50" height="50" relative="1" as="geometry">
            <mxPoint x="425" y="90" as="sourcePoint" />
            <mxPoint x="380" y="180" as="targetPoint" />
          </mxGeometry>
        </mxCell>
        <mxCell id="zAQoVmMT4pAwGXwPfLdV-12" value="" style="endArrow=classic;html=1;rounded=0;" edge="1" parent="1">
          <mxGeometry width="50" height="50" relative="1" as="geometry">
            <mxPoint x="460" y="90" as="sourcePoint" />
            <mxPoint x="500" y="180" as="targetPoint" />
          </mxGeometry>
        </mxCell>
        <mxCell id="zAQoVmMT4pAwGXwPfLdV-13" value="" style="endArrow=classic;html=1;rounded=0;" edge="1" parent="1">
          <mxGeometry width="50" height="50" relative="1" as="geometry">
            <mxPoint x="480" y="70" as="sourcePoint" />
            <mxPoint x="630" y="190" as="targetPoint" />
          </mxGeometry>
        </mxCell>
        <mxCell id="zAQoVmMT4pAwGXwPfLdV-14" value=".devcotainer" style="rounded=0;whiteSpace=wrap;html=1;" vertex="1" parent="1">
          <mxGeometry x="135" y="300" width="100" height="40" as="geometry" />
        </mxCell>
        <mxCell id="zAQoVmMT4pAwGXwPfLdV-15" value="PreBuild" style="shape=cylinder3;whiteSpace=wrap;html=1;boundedLbl=1;backgroundOutline=1;size=15;" vertex="1" parent="1">
          <mxGeometry x="510" y="-40" width="60" height="80" as="geometry" />
        </mxCell>
        <mxCell id="zAQoVmMT4pAwGXwPfLdV-16" value="PreBuild" style="shape=cylinder3;whiteSpace=wrap;html=1;boundedLbl=1;backgroundOutline=1;size=15;" vertex="1" parent="1">
          <mxGeometry x="635" y="350" width="60" height="80" as="geometry" />
        </mxCell>
        <mxCell id="zAQoVmMT4pAwGXwPfLdV-17" value="PreBuild" style="shape=cylinder3;whiteSpace=wrap;html=1;boundedLbl=1;backgroundOutline=1;size=15;" vertex="1" parent="1">
          <mxGeometry x="465" y="350" width="60" height="80" as="geometry" />
        </mxCell>
        <mxCell id="zAQoVmMT4pAwGXwPfLdV-18" value="PreBuild" style="shape=cylinder3;whiteSpace=wrap;html=1;boundedLbl=1;backgroundOutline=1;size=15;" vertex="1" parent="1">
          <mxGeometry x="315" y="350" width="60" height="80" as="geometry" />
        </mxCell>
        <mxCell id="zAQoVmMT4pAwGXwPfLdV-19" value="PreBuild" style="shape=cylinder3;whiteSpace=wrap;html=1;boundedLbl=1;backgroundOutline=1;size=15;" vertex="1" parent="1">
          <mxGeometry x="150" y="350" width="60" height="80" as="geometry" />
        </mxCell>
      </root>
    </mxGraphModel>
  </diagram>
</mxfile>
